<mxfile host="app.diagrams.net" agent="Mozilla/5.0 (Windows NT 10.0; Win64; x64) AppleWebKit/537.36 (KHTML, like Gecko) Chrome/132.0.0.0 Safari/537.36" version="26.0.11">
  <diagram name="Trang-1" id="8xiH2OOtXaqPHBVFGbFu">
    <mxGraphModel dx="2876" dy="2223" grid="1" gridSize="10" guides="1" tooltips="1" connect="1" arrows="1" fold="1" page="1" pageScale="1" pageWidth="827" pageHeight="1169" math="0" shadow="0">
      <root>
        <mxCell id="0" />
        <mxCell id="1" parent="0" />
        <mxCell id="c982sMjrz0b1hlTvcS-G-41" style="edgeStyle=orthogonalEdgeStyle;rounded=0;orthogonalLoop=1;jettySize=auto;html=1;entryX=0;entryY=0.5;entryDx=0;entryDy=0;fontSize=14;" edge="1" parent="1" source="c982sMjrz0b1hlTvcS-G-1" target="c982sMjrz0b1hlTvcS-G-24">
          <mxGeometry relative="1" as="geometry" />
        </mxCell>
        <mxCell id="c982sMjrz0b1hlTvcS-G-50" style="edgeStyle=none;rounded=0;orthogonalLoop=1;jettySize=auto;html=1;exitX=0;exitY=0.5;exitDx=0;exitDy=0;entryX=1;entryY=0.5;entryDx=0;entryDy=0;fontSize=14;" edge="1" parent="1" source="c982sMjrz0b1hlTvcS-G-1" target="c982sMjrz0b1hlTvcS-G-40">
          <mxGeometry relative="1" as="geometry" />
        </mxCell>
        <mxCell id="c982sMjrz0b1hlTvcS-G-51" style="edgeStyle=none;rounded=0;orthogonalLoop=1;jettySize=auto;html=1;exitX=0;exitY=0.25;exitDx=0;exitDy=0;entryX=1;entryY=0.5;entryDx=0;entryDy=0;fontSize=14;" edge="1" parent="1" source="c982sMjrz0b1hlTvcS-G-1" target="c982sMjrz0b1hlTvcS-G-39">
          <mxGeometry relative="1" as="geometry" />
        </mxCell>
        <mxCell id="c982sMjrz0b1hlTvcS-G-52" style="edgeStyle=none;rounded=0;orthogonalLoop=1;jettySize=auto;html=1;exitX=0;exitY=0;exitDx=0;exitDy=0;entryX=1;entryY=0.5;entryDx=0;entryDy=0;fontSize=14;" edge="1" parent="1" source="c982sMjrz0b1hlTvcS-G-1" target="c982sMjrz0b1hlTvcS-G-38">
          <mxGeometry relative="1" as="geometry" />
        </mxCell>
        <mxCell id="c982sMjrz0b1hlTvcS-G-53" style="edgeStyle=none;rounded=0;orthogonalLoop=1;jettySize=auto;html=1;exitX=0;exitY=0.75;exitDx=0;exitDy=0;entryX=1;entryY=0.5;entryDx=0;entryDy=0;entryPerimeter=0;fontSize=14;" edge="1" parent="1" source="c982sMjrz0b1hlTvcS-G-1" target="c982sMjrz0b1hlTvcS-G-37">
          <mxGeometry relative="1" as="geometry" />
        </mxCell>
        <mxCell id="c982sMjrz0b1hlTvcS-G-54" style="edgeStyle=none;rounded=0;orthogonalLoop=1;jettySize=auto;html=1;exitX=0;exitY=1;exitDx=0;exitDy=0;entryX=1;entryY=0.5;entryDx=0;entryDy=0;fontSize=14;" edge="1" parent="1" source="c982sMjrz0b1hlTvcS-G-1" target="c982sMjrz0b1hlTvcS-G-30">
          <mxGeometry relative="1" as="geometry" />
        </mxCell>
        <mxCell id="c982sMjrz0b1hlTvcS-G-55" style="edgeStyle=none;rounded=0;orthogonalLoop=1;jettySize=auto;html=1;exitX=0.25;exitY=1;exitDx=0;exitDy=0;entryX=1;entryY=0.5;entryDx=0;entryDy=0;fontSize=14;" edge="1" parent="1" source="c982sMjrz0b1hlTvcS-G-1" target="c982sMjrz0b1hlTvcS-G-35">
          <mxGeometry relative="1" as="geometry" />
        </mxCell>
        <mxCell id="c982sMjrz0b1hlTvcS-G-56" style="edgeStyle=none;rounded=0;orthogonalLoop=1;jettySize=auto;html=1;exitX=0.25;exitY=0;exitDx=0;exitDy=0;entryX=1;entryY=0.5;entryDx=0;entryDy=0;fontSize=14;" edge="1" parent="1" source="c982sMjrz0b1hlTvcS-G-1" target="c982sMjrz0b1hlTvcS-G-36">
          <mxGeometry relative="1" as="geometry" />
        </mxCell>
        <mxCell id="c982sMjrz0b1hlTvcS-G-1" value="&lt;font&gt;HocSinh&lt;/font&gt;" style="rounded=0;whiteSpace=wrap;html=1;fontSize=14;" vertex="1" parent="1">
          <mxGeometry x="120" y="245" width="150" height="80" as="geometry" />
        </mxCell>
        <mxCell id="c982sMjrz0b1hlTvcS-G-42" style="edgeStyle=orthogonalEdgeStyle;rounded=0;orthogonalLoop=1;jettySize=auto;html=1;exitX=0;exitY=0.5;exitDx=0;exitDy=0;entryX=1;entryY=0.5;entryDx=0;entryDy=0;fontSize=14;" edge="1" parent="1" source="c982sMjrz0b1hlTvcS-G-23" target="c982sMjrz0b1hlTvcS-G-24">
          <mxGeometry relative="1" as="geometry" />
        </mxCell>
        <mxCell id="c982sMjrz0b1hlTvcS-G-59" style="edgeStyle=none;rounded=0;orthogonalLoop=1;jettySize=auto;html=1;exitX=1;exitY=0.5;exitDx=0;exitDy=0;entryX=0;entryY=0.5;entryDx=0;entryDy=0;fontSize=14;" edge="1" parent="1" source="c982sMjrz0b1hlTvcS-G-23" target="c982sMjrz0b1hlTvcS-G-34">
          <mxGeometry relative="1" as="geometry" />
        </mxCell>
        <mxCell id="c982sMjrz0b1hlTvcS-G-60" style="edgeStyle=none;rounded=0;orthogonalLoop=1;jettySize=auto;html=1;exitX=1;exitY=0.75;exitDx=0;exitDy=0;entryX=0;entryY=0.5;entryDx=0;entryDy=0;fontSize=14;" edge="1" parent="1" source="c982sMjrz0b1hlTvcS-G-23" target="c982sMjrz0b1hlTvcS-G-32">
          <mxGeometry relative="1" as="geometry" />
        </mxCell>
        <mxCell id="c982sMjrz0b1hlTvcS-G-61" style="edgeStyle=none;rounded=0;orthogonalLoop=1;jettySize=auto;html=1;exitX=1;exitY=0.25;exitDx=0;exitDy=0;entryX=0;entryY=0.5;entryDx=0;entryDy=0;fontSize=14;" edge="1" parent="1" source="c982sMjrz0b1hlTvcS-G-23" target="c982sMjrz0b1hlTvcS-G-31">
          <mxGeometry relative="1" as="geometry" />
        </mxCell>
        <mxCell id="c982sMjrz0b1hlTvcS-G-62" style="edgeStyle=none;rounded=0;orthogonalLoop=1;jettySize=auto;html=1;exitX=1;exitY=0;exitDx=0;exitDy=0;entryX=0;entryY=0.5;entryDx=0;entryDy=0;fontSize=14;" edge="1" parent="1" source="c982sMjrz0b1hlTvcS-G-23" target="c982sMjrz0b1hlTvcS-G-33">
          <mxGeometry relative="1" as="geometry" />
        </mxCell>
        <mxCell id="c982sMjrz0b1hlTvcS-G-63" style="edgeStyle=none;rounded=0;orthogonalLoop=1;jettySize=auto;html=1;exitX=1;exitY=1;exitDx=0;exitDy=0;entryX=0;entryY=0.5;entryDx=0;entryDy=0;fontSize=14;" edge="1" parent="1" source="c982sMjrz0b1hlTvcS-G-23" target="c982sMjrz0b1hlTvcS-G-29">
          <mxGeometry relative="1" as="geometry" />
        </mxCell>
        <mxCell id="c982sMjrz0b1hlTvcS-G-64" style="edgeStyle=none;rounded=0;orthogonalLoop=1;jettySize=auto;html=1;exitX=0.75;exitY=1;exitDx=0;exitDy=0;entryX=0;entryY=0.5;entryDx=0;entryDy=0;fontSize=14;" edge="1" parent="1" source="c982sMjrz0b1hlTvcS-G-23" target="c982sMjrz0b1hlTvcS-G-28">
          <mxGeometry relative="1" as="geometry" />
        </mxCell>
        <mxCell id="c982sMjrz0b1hlTvcS-G-23" value="KhoaHoc" style="rounded=0;whiteSpace=wrap;html=1;fontSize=14;" vertex="1" parent="1">
          <mxGeometry x="580" y="245" width="150" height="80" as="geometry" />
        </mxCell>
        <mxCell id="c982sMjrz0b1hlTvcS-G-57" style="edgeStyle=none;rounded=0;orthogonalLoop=1;jettySize=auto;html=1;exitX=0.5;exitY=0;exitDx=0;exitDy=0;entryX=0.5;entryY=1;entryDx=0;entryDy=0;fontSize=14;" edge="1" parent="1" source="c982sMjrz0b1hlTvcS-G-24" target="c982sMjrz0b1hlTvcS-G-26">
          <mxGeometry relative="1" as="geometry" />
        </mxCell>
        <mxCell id="c982sMjrz0b1hlTvcS-G-58" style="edgeStyle=none;rounded=0;orthogonalLoop=1;jettySize=auto;html=1;exitX=0.5;exitY=1;exitDx=0;exitDy=0;entryX=0.5;entryY=0;entryDx=0;entryDy=0;fontSize=14;" edge="1" parent="1" source="c982sMjrz0b1hlTvcS-G-24" target="c982sMjrz0b1hlTvcS-G-27">
          <mxGeometry relative="1" as="geometry" />
        </mxCell>
        <mxCell id="c982sMjrz0b1hlTvcS-G-24" value="Đăng ký" style="rhombus;whiteSpace=wrap;html=1;fontSize=14;" vertex="1" parent="1">
          <mxGeometry x="336" y="245" width="156" height="80" as="geometry" />
        </mxCell>
        <mxCell id="c982sMjrz0b1hlTvcS-G-26" value="SoLuong" style="ellipse;whiteSpace=wrap;html=1;fontSize=14;" vertex="1" parent="1">
          <mxGeometry x="349" y="120" width="130" height="60" as="geometry" />
        </mxCell>
        <mxCell id="c982sMjrz0b1hlTvcS-G-27" value="NgayDangKy" style="ellipse;whiteSpace=wrap;html=1;fontSize=14;" vertex="1" parent="1">
          <mxGeometry x="349" y="390" width="130" height="60" as="geometry" />
        </mxCell>
        <mxCell id="c982sMjrz0b1hlTvcS-G-28" value="HocPhiTheoNgay" style="ellipse;whiteSpace=wrap;html=1;fontSize=14;" vertex="1" parent="1">
          <mxGeometry x="920" y="522.5" width="130" height="60" as="geometry" />
        </mxCell>
        <mxCell id="c982sMjrz0b1hlTvcS-G-29" value="SoBuoiTrongThang" style="ellipse;whiteSpace=wrap;html=1;fontSize=14;" vertex="1" parent="1">
          <mxGeometry x="920" y="417.5" width="130" height="60" as="geometry" />
        </mxCell>
        <mxCell id="c982sMjrz0b1hlTvcS-G-30" value="SoDienThoai" style="ellipse;whiteSpace=wrap;html=1;fontSize=14;" vertex="1" parent="1">
          <mxGeometry x="-160" y="470" width="130" height="60" as="geometry" />
        </mxCell>
        <mxCell id="c982sMjrz0b1hlTvcS-G-31" value="TenKhoaHoc" style="ellipse;whiteSpace=wrap;html=1;fontSize=14;" vertex="1" parent="1">
          <mxGeometry x="920" y="107.5" width="130" height="60" as="geometry" />
        </mxCell>
        <mxCell id="c982sMjrz0b1hlTvcS-G-32" value="MucHoc" style="ellipse;whiteSpace=wrap;html=1;fontSize=14;" vertex="1" parent="1">
          <mxGeometry x="920" y="307.5" width="130" height="60" as="geometry" />
        </mxCell>
        <mxCell id="c982sMjrz0b1hlTvcS-G-33" value="&lt;u&gt;MaKhoaHoc&lt;/u&gt;" style="ellipse;whiteSpace=wrap;html=1;fontSize=14;" vertex="1" parent="1">
          <mxGeometry x="920" y="7.5" width="130" height="60" as="geometry" />
        </mxCell>
        <mxCell id="c982sMjrz0b1hlTvcS-G-34" value="MonHoc" style="ellipse;whiteSpace=wrap;html=1;fontSize=14;" vertex="1" parent="1">
          <mxGeometry x="920" y="222.5" width="130" height="60" as="geometry" />
        </mxCell>
        <mxCell id="c982sMjrz0b1hlTvcS-G-35" value="Lop" style="ellipse;whiteSpace=wrap;html=1;fontSize=14;" vertex="1" parent="1">
          <mxGeometry x="-160" y="565" width="130" height="60" as="geometry" />
        </mxCell>
        <mxCell id="c982sMjrz0b1hlTvcS-G-36" value="&lt;u&gt;MaHocSinh&lt;/u&gt;" style="ellipse;whiteSpace=wrap;html=1;fontSize=14;" vertex="1" parent="1">
          <mxGeometry x="-160" y="-80" width="130" height="60" as="geometry" />
        </mxCell>
        <mxCell id="c982sMjrz0b1hlTvcS-G-37" value="DiaChi" style="ellipse;whiteSpace=wrap;html=1;fontSize=14;" vertex="1" parent="1">
          <mxGeometry x="-160" y="380" width="130" height="60" as="geometry" />
        </mxCell>
        <mxCell id="c982sMjrz0b1hlTvcS-G-38" value="HoTen" style="ellipse;whiteSpace=wrap;html=1;fontSize=14;" vertex="1" parent="1">
          <mxGeometry x="-160" y="20" width="130" height="60" as="geometry" />
        </mxCell>
        <mxCell id="c982sMjrz0b1hlTvcS-G-39" value="NgaySinh" style="ellipse;whiteSpace=wrap;html=1;fontSize=14;" vertex="1" parent="1">
          <mxGeometry x="-160" y="140" width="130" height="60" as="geometry" />
        </mxCell>
        <mxCell id="c982sMjrz0b1hlTvcS-G-40" value="GioiTinh" style="ellipse;whiteSpace=wrap;html=1;fontSize=14;" vertex="1" parent="1">
          <mxGeometry x="-160" y="265" width="130" height="60" as="geometry" />
        </mxCell>
      </root>
    </mxGraphModel>
  </diagram>
</mxfile>
